<?xml version="1.0" encoding="UTF-8" standalone="no"?>
<svg
   xmlns:dc="http://purl.org/dc/elements/1.1/"
   xmlns:cc="http://creativecommons.org/ns#"
   xmlns:rdf="http://www.w3.org/1999/02/22-rdf-syntax-ns#"
   xmlns:svg="http://www.w3.org/2000/svg"
   xmlns="http://www.w3.org/2000/svg"
   xmlns:sodipodi="http://sodipodi.sourceforge.net/DTD/sodipodi-0.dtd"
   xmlns:inkscape="http://www.inkscape.org/namespaces/inkscape"
   aria-hidden="true"
   focusable="false"
   data-prefix="far"
   data-icon="window-maximize"
   class="svg-inline--fa fa-window-maximize fa-w-16"
   role="img"
   viewBox="0 0 512 512"
   version="1.1"
   id="svg4"
   sodipodi:docname="browser.svg"
   inkscape:version="0.92.5 (2060ec1f9f, 2020-04-08)">
  <metadata
     id="metadata10">
    <rdf:RDF>
      <cc:Work
         rdf:about="">
        <dc:format>image/svg+xml</dc:format>
        <dc:type
           rdf:resource="http://purl.org/dc/dcmitype/StillImage" />
        <dc:title></dc:title>
      </cc:Work>
    </rdf:RDF>
  </metadata>
  <defs
     id="defs8" />
  <sodipodi:namedview
     pagecolor="#ffffff"
     bordercolor="#666666"
     borderopacity="1"
     objecttolerance="10"
     gridtolerance="10"
     guidetolerance="10"
     inkscape:pageopacity="0"
     inkscape:pageshadow="2"
     inkscape:window-width="3840"
     inkscape:window-height="2015"
     id="namedview6"
     showgrid="false"
     inkscape:zoom="1.3037281"
     inkscape:cx="395.23649"
     inkscape:cy="493.9791"
     inkscape:window-x="0"
     inkscape:window-y="0"
     inkscape:window-maximized="1"
     inkscape:current-layer="svg4" />
  <path
     style="fill:#ffffff;stroke-width:0.64999998"
     d="m 120.8,110.4 c -17.225,0 -31.2,13.975 -31.2,31.2 v 228.8 c 0,17.225 13.975,31.2 31.2,31.2 h 270.4 c 17.225,0 31.2,-13.975 31.2,-31.2 V 141.6 c 0,-17.225 -13.975,-31.2 -31.2,-31.2 z m 0,94.9 h 270.4 v 161.2 c 0,2.145 -1.755,3.9 -3.9,3.9 H 124.7 c -2.145,0 -3.9,-1.755 -3.9,-3.9 z m 27.1502,18.94268 c -3.81414,0 -6.90752,3.09467 -6.90752,6.90878 v 50.66319 c 0,3.8141 3.09338,6.90879 6.90752,6.90879 h 50.66318 c 3.81413,0 6.90879,-3.09469 6.90879,-6.90879 v -50.66319 c 0,-3.81411 -3.09466,-6.90878 -6.90879,-6.90878 z m 85.70859,0 c -3.81413,0 -6.90879,3.09467 -6.90879,6.90878 v 50.66319 c 0,3.8141 3.09466,6.90879 6.90879,6.90879 h 50.66319 c 3.81413,0 6.90878,-3.09469 6.90878,-6.90879 v -50.66319 c 0,-3.81411 -3.09465,-6.90878 -6.90878,-6.90878 z"
     id="path2"
     inkscape:connector-curvature="0" />
</svg>
