<?xml version="1.0" encoding="UTF-8" standalone="no"?>
<svg
   xmlns:dc="http://purl.org/dc/elements/1.1/"
   xmlns:cc="http://creativecommons.org/ns#"
   xmlns:rdf="http://www.w3.org/1999/02/22-rdf-syntax-ns#"
   xmlns:svg="http://www.w3.org/2000/svg"
   xmlns="http://www.w3.org/2000/svg"
   xmlns:sodipodi="http://sodipodi.sourceforge.net/DTD/sodipodi-0.dtd"
   xmlns:inkscape="http://www.inkscape.org/namespaces/inkscape"
   aria-hidden="true"
   focusable="false"
   data-prefix="fas"
   data-icon="crosshairs"
   class="svg-inline--fa fa-crosshairs fa-w-16"
   role="img"
   viewBox="0 0 512 512"
   version="1.1"
   id="svg4"
   sodipodi:docname="calibrate.svg"
   inkscape:version="0.92.5 (2060ec1f9f, 2020-04-08)">
  <metadata
     id="metadata10">
    <rdf:RDF>
      <cc:Work
         rdf:about="">
        <dc:format>image/svg+xml</dc:format>
        <dc:type
           rdf:resource="http://purl.org/dc/dcmitype/StillImage" />
        <dc:title></dc:title>
      </cc:Work>
    </rdf:RDF>
  </metadata>
  <defs
     id="defs8" />
  <sodipodi:namedview
     pagecolor="#ffffff"
     bordercolor="#666666"
     borderopacity="1"
     objecttolerance="10"
     gridtolerance="10"
     guidetolerance="10"
     inkscape:pageopacity="0"
     inkscape:pageshadow="2"
     inkscape:window-width="3840"
     inkscape:window-height="2015"
     id="namedview6"
     showgrid="false"
     inkscape:object-paths="true"
     inkscape:zoom="2.6074563"
     inkscape:cx="278.83623"
     inkscape:cy="241.99669"
     inkscape:window-x="0"
     inkscape:window-y="0"
     inkscape:window-maximized="1"
     inkscape:current-layer="svg4"
     inkscape:pagecheckerboard="true" />
  <path
     d="M 414.6,235.2 H 394.8634 C 385.8206,174.31125 337.68875,126.1794 276.8,117.1366 V 97.4 c 0,-4.30755 -3.49245,-7.8 -7.8,-7.8 h -26 c -4.30755,0 -7.8,3.49245 -7.8,7.8 v 19.7366 C 174.31125,126.1794 126.1794,174.31125 117.1366,235.2 H 97.4 c -4.30755,0 -7.8,3.49245 -7.8,7.8 v 26 c 0,4.30755 3.49245,7.8 7.8,7.8 h 19.7366 c 9.0428,60.88875 57.17465,109.0206 118.0634,118.0634 V 414.6 c 0,4.30755 3.49245,7.8 7.8,7.8 h 26 c 4.30755,0 7.8,-3.49245 7.8,-7.8 V 394.8634 C 337.68875,385.8206 385.8206,337.68875 394.8634,276.8 H 414.6 c 4.30755,0 7.8,-3.49245 7.8,-7.8 v -26 c 0,-4.30755 -3.49245,-7.8 -7.8,-7.8 z M 276.8,352.6121 V 326.2 c 0,-4.30755 -3.49245,-7.8 -7.8,-7.8 h -26 c -4.30755,0 -7.8,3.49245 -7.8,7.8 v 26.4121 C 197.3869,344.5508 167.45895,314.65795 159.3879,276.8 H 185.8 c 4.30755,0 7.8,-3.49245 7.8,-7.8 v -26 c 0,-4.30755 -3.49245,-7.8 -7.8,-7.8 h -26.4121 c 8.0613,-37.8131 37.95415,-67.74105 75.8121,-75.8121 V 185.8 c 0,4.30755 3.49245,7.8 7.8,7.8 h 26 c 4.30755,0 7.8,-3.49245 7.8,-7.8 v -26.4121 c 37.8131,8.0613 67.74105,37.95415 75.8121,75.8121 H 326.2 c -4.30755,0 -7.8,3.49245 -7.8,7.8 v 26 c 0,4.30755 3.49245,7.8 7.8,7.8 h 26.4121 c -8.0613,37.8131 -37.95415,67.74105 -75.8121,75.8121 z M 276.8,256 c 0,11.48745 -9.31255,20.8 -20.8,20.8 -11.48745,0 -20.8,-9.31255 -20.8,-20.8 0,-11.48745 9.31255,-20.8 20.8,-20.8 11.48745,0 20.8,9.31255 20.8,20.8 z"
     id="path2"
     inkscape:connector-curvature="0"
     style="fill:#ffffff;stroke-width:0.64999998" />
</svg>
