<?xml version="1.0" encoding="UTF-8" standalone="no"?>
<svg
   xmlns:dc="http://purl.org/dc/elements/1.1/"
   xmlns:cc="http://creativecommons.org/ns#"
   xmlns:rdf="http://www.w3.org/1999/02/22-rdf-syntax-ns#"
   xmlns:svg="http://www.w3.org/2000/svg"
   xmlns="http://www.w3.org/2000/svg"
   xmlns:sodipodi="http://sodipodi.sourceforge.net/DTD/sodipodi-0.dtd"
   xmlns:inkscape="http://www.inkscape.org/namespaces/inkscape"
   aria-hidden="true"
   focusable="false"
   data-prefix="fas"
   data-icon="camera"
   class="svg-inline--fa fa-camera fa-w-16"
   role="img"
   viewBox="0 0 512 512"
   version="1.1"
   id="svg4"
   sodipodi:docname="camera.svg"
   inkscape:export-filename="/home/david/PhD/pyHSI/icons/camera.png"
   inkscape:export-xdpi="12.19"
   inkscape:export-ydpi="12.19"
   inkscape:version="0.92.5 (2060ec1f9f, 2020-04-08)">
  <metadata
     id="metadata10">
    <rdf:RDF>
      <cc:Work
         rdf:about="">
        <dc:format>image/svg+xml</dc:format>
        <dc:type
           rdf:resource="http://purl.org/dc/dcmitype/StillImage" />
        <dc:title></dc:title>
      </cc:Work>
    </rdf:RDF>
  </metadata>
  <defs
     id="defs8" />
  <sodipodi:namedview
     pagecolor="#ffffff"
     bordercolor="#666666"
     borderopacity="1"
     objecttolerance="10"
     gridtolerance="10"
     guidetolerance="10"
     inkscape:pageopacity="0"
     inkscape:pageshadow="2"
     inkscape:window-width="3840"
     inkscape:window-height="2015"
     id="namedview6"
     showgrid="false"
     inkscape:zoom="0.4609375"
     inkscape:cx="256"
     inkscape:cy="256"
     inkscape:window-x="0"
     inkscape:window-y="0"
     inkscape:window-maximized="1"
     inkscape:current-layer="svg4" />
  <path
     d="m 422.4,183.2 v 187.2 c 0,17.225 -13.975,31.2 -31.2,31.2 H 120.8 c -17.225,0 -31.2,-13.975 -31.2,-31.2 V 183.2 c 0,-17.225 13.975,-31.2 31.2,-31.2 H 178 l 7.995,-21.385 C 190.545,118.46 202.18,110.4 215.18,110.4 h 81.575 c 13,0 24.635,8.06 29.185,20.215 L 334,152 h 57.2 c 17.225,0 31.2,13.975 31.2,31.2 z M 334,276.8 c 0,-43.03 -34.97,-78 -78,-78 -43.03,0 -78,34.97 -78,78 0,43.03 34.97,78 78,78 43.03,0 78,-34.97 78,-78 z m -20.8,0 c 0,31.525 -25.675,57.2 -57.2,57.2 -31.525,0 -57.2,-25.675 -57.2,-57.2 0,-31.525 25.675,-57.2 57.2,-57.2 31.525,0 57.2,25.675 57.2,57.2 z"
     id="path2"
     inkscape:connector-curvature="0"
     style="fill:#ffffff;stroke-width:0.64999998" />
</svg>
