<?xml version="1.0" encoding="UTF-8" standalone="no"?>
<svg
   xmlns:dc="http://purl.org/dc/elements/1.1/"
   xmlns:cc="http://creativecommons.org/ns#"
   xmlns:rdf="http://www.w3.org/1999/02/22-rdf-syntax-ns#"
   xmlns:svg="http://www.w3.org/2000/svg"
   xmlns="http://www.w3.org/2000/svg"
   xmlns:sodipodi="http://sodipodi.sourceforge.net/DTD/sodipodi-0.dtd"
   xmlns:inkscape="http://www.inkscape.org/namespaces/inkscape"
   aria-hidden="true"
   focusable="false"
   data-prefix="fas"
   data-icon="crop-alt"
   class="svg-inline--fa fa-crop-alt fa-w-16"
   role="img"
   viewBox="0 0 512 512"
   version="1.1"
   id="svg4"
   sodipodi:docname="crop.svg"
   inkscape:version="1.0.1 (3bc2e813f5, 2020-09-07)">
  <metadata
     id="metadata10">
    <rdf:RDF>
      <cc:Work
         rdf:about="">
        <dc:format>image/svg+xml</dc:format>
        <dc:type
           rdf:resource="http://purl.org/dc/dcmitype/StillImage" />
        <dc:title></dc:title>
      </cc:Work>
    </rdf:RDF>
  </metadata>
  <defs
     id="defs8" />
  <sodipodi:namedview
     pagecolor="#ffffff"
     bordercolor="#666666"
     borderopacity="1"
     objecttolerance="10"
     gridtolerance="10"
     guidetolerance="10"
     inkscape:pageopacity="0"
     inkscape:pageshadow="2"
     inkscape:window-width="1440"
     inkscape:window-height="831"
     id="namedview6"
     showgrid="false"
     inkscape:pagecheckerboard="true"
     inkscape:zoom="0.89216988"
     inkscape:cx="233.01948"
     inkscape:cy="223.49898"
     inkscape:window-x="0"
     inkscape:window-y="62"
     inkscape:window-maximized="1"
     inkscape:current-layer="svg4" />
  <path
     fill="currentColor"
     d="m 406.8,318.4 h -26 V 152 c 0,-11.4855 -9.3145,-20.8 -20.8,-20.8 H 214.4 v 62.4 h 104 v 213.2 c 0,8.6125 6.9875,15.6 15.6,15.6 h 31.2 c 8.6125,0 15.6,-6.9875 15.6,-15.6 v -26 h 26 c 8.6125,0 15.6,-6.9875 15.6,-15.6 V 334 c 0,-8.619 -6.9875,-15.6 -15.6,-15.6 z M 193.6,105.2 c 0,-8.619 -6.9875,-15.6 -15.6,-15.6 h -31.2 c -8.6125,0 -15.6,6.981 -15.6,15.6 v 26 h -26 c -8.6125,0 -15.6,6.981 -15.6,15.6 V 178 c 0,8.6125 6.9875,15.6 15.6,15.6 h 26 V 360 c 0,11.4855 9.3145,20.8 20.8,20.8 h 145.6 v -62.4 h -104 z"
     id="path2"
     style="fill:#ffffff;stroke-width:0.65" />
</svg>
