<?xml version="1.0" encoding="UTF-8" standalone="no"?>
<svg
   xmlns:dc="http://purl.org/dc/elements/1.1/"
   xmlns:cc="http://creativecommons.org/ns#"
   xmlns:rdf="http://www.w3.org/1999/02/22-rdf-syntax-ns#"
   xmlns:svg="http://www.w3.org/2000/svg"
   xmlns="http://www.w3.org/2000/svg"
   xmlns:sodipodi="http://sodipodi.sourceforge.net/DTD/sodipodi-0.dtd"
   xmlns:inkscape="http://www.inkscape.org/namespaces/inkscape"
   aria-hidden="true"
   focusable="false"
   data-prefix="fas"
   data-icon="cube"
   class="svg-inline--fa fa-cube fa-w-16"
   role="img"
   viewBox="0 0 512 512"
   version="1.1"
   id="svg4"
   sodipodi:docname="cube.svg"
   inkscape:version="0.92.5 (2060ec1f9f, 2020-04-08)">
  <metadata
     id="metadata10">
    <rdf:RDF>
      <cc:Work
         rdf:about="">
        <dc:format>image/svg+xml</dc:format>
        <dc:type
           rdf:resource="http://purl.org/dc/dcmitype/StillImage" />
        <dc:title></dc:title>
      </cc:Work>
    </rdf:RDF>
  </metadata>
  <defs
     id="defs8" />
  <sodipodi:namedview
     pagecolor="#ffffff"
     bordercolor="#666666"
     borderopacity="1"
     objecttolerance="10"
     gridtolerance="10"
     guidetolerance="10"
     inkscape:pageopacity="0"
     inkscape:pageshadow="2"
     inkscape:window-width="3840"
     inkscape:window-height="2015"
     id="namedview6"
     showgrid="false"
     inkscape:pagecheckerboard="true"
     inkscape:zoom="0.4609375"
     inkscape:cx="256"
     inkscape:cy="256"
     inkscape:window-x="0"
     inkscape:window-y="0"
     inkscape:window-maximized="1"
     inkscape:current-layer="svg4" />
  <path
     d="m 245.0475,94.462851 -135.2,50.699999 c -12.155,4.55 -20.215,16.25 -20.215,29.25 v 146.315 c 0,11.83 6.695,22.62 17.225,27.885 l 135.2,67.6 c 8.775,4.42 19.11,4.42 27.885,0 l 135.2,-67.6 c 10.595,-5.265 17.225,-16.12 17.225,-27.885 v -146.315 c 0,-13 -8.06,-24.635 -20.215,-29.185 l -135.2,-50.699999 c -7.02,-2.73 -14.82,-2.73 -21.905,-0.065 z m 10.985,40.364999 124.8,46.8 v 0.715 l -124.8,50.7 -124.8,-50.7 v -0.715 z m 20.8,231.4 v -96.785 l 104,-42.25 v 87.035 z"
     id="path2"
     style="fill:#ffffff;stroke-width:0.64999998"
     inkscape:connector-curvature="0" />
</svg>
