<?xml version="1.0" encoding="UTF-8" standalone="no"?>
<svg
   xmlns:dc="http://purl.org/dc/elements/1.1/"
   xmlns:cc="http://creativecommons.org/ns#"
   xmlns:rdf="http://www.w3.org/1999/02/22-rdf-syntax-ns#"
   xmlns:svg="http://www.w3.org/2000/svg"
   xmlns="http://www.w3.org/2000/svg"
   xmlns:sodipodi="http://sodipodi.sourceforge.net/DTD/sodipodi-0.dtd"
   xmlns:inkscape="http://www.inkscape.org/namespaces/inkscape"
   aria-hidden="true"
   focusable="false"
   data-prefix="far"
   data-icon="file-alt"
   class="svg-inline--fa fa-file-alt fa-w-12"
   role="img"
   viewBox="0 0 512 512"
   version="1.1"
   id="svg4"
   sodipodi:docname="text_file.svg"
   width="512"
   height="512"
   inkscape:version="0.92.5 (2060ec1f9f, 2020-04-08)">
  <metadata
     id="metadata10">
    <rdf:RDF>
      <cc:Work
         rdf:about="">
        <dc:format>image/svg+xml</dc:format>
        <dc:type
           rdf:resource="http://purl.org/dc/dcmitype/StillImage" />
        <dc:title></dc:title>
      </cc:Work>
    </rdf:RDF>
  </metadata>
  <defs
     id="defs8" />
  <sodipodi:namedview
     pagecolor="#ffffff"
     bordercolor="#666666"
     borderopacity="1"
     objecttolerance="10"
     gridtolerance="10"
     guidetolerance="10"
     inkscape:pageopacity="0"
     inkscape:pageshadow="2"
     inkscape:window-width="3840"
     inkscape:window-height="2015"
     id="namedview6"
     showgrid="false"
     inkscape:pagecheckerboard="true"
     inkscape:zoom="3.4550781"
     inkscape:cx="256"
     inkscape:cy="256"
     inkscape:window-x="0"
     inkscape:window-y="0"
     inkscape:window-maximized="1"
     inkscape:current-layer="svg4" />
  <path
     d="M 318.4,250.8 V 269 c 0,4.29 -3.51,7.8 -7.8,7.8 H 201.4 c -4.29,0 -7.8,-3.51 -7.8,-7.8 v -18.2 c 0,-4.29 3.51,-7.8 7.8,-7.8 h 109.2 c 4.29,0 7.8,3.51 7.8,7.8 z m -7.8,46.8 H 201.4 c -4.29,0 -7.8,3.51 -7.8,7.8 v 18.2 c 0,4.29 3.51,7.8 7.8,7.8 h 109.2 c 4.29,0 7.8,-3.51 7.8,-7.8 v -18.2 c 0,-4.29 -3.51,-7.8 -7.8,-7.8 z M 380.8,175.335 V 391.2 c 0,17.225 -13.975,31.2 -31.2,31.2 H 162.4 c -17.225,0 -31.2,-13.975 -31.2,-31.2 V 120.8 c 0,-17.225 13.975,-31.2 31.2,-31.2 h 132.665 c 8.255,0 16.185,3.315 22.035,9.165 l 54.535,54.535 c 5.85,5.785 9.165,13.78 9.165,22.035 z m -83.2,-52 V 172.8 h 49.465 z m 52,267.865 V 204 H 282 c -8.645,0 -15.6,-6.955 -15.6,-15.6 v -67.6 h -104 v 270.4 z"
     id="path2"
     inkscape:connector-curvature="0"
     style="fill:#ffffff;stroke-width:0.64999998" />
</svg>
