<?xml version="1.0" encoding="UTF-8" standalone="no"?>
<svg
   xmlns:dc="http://purl.org/dc/elements/1.1/"
   xmlns:cc="http://creativecommons.org/ns#"
   xmlns:rdf="http://www.w3.org/1999/02/22-rdf-syntax-ns#"
   xmlns:svg="http://www.w3.org/2000/svg"
   xmlns="http://www.w3.org/2000/svg"
   xmlns:sodipodi="http://sodipodi.sourceforge.net/DTD/sodipodi-0.dtd"
   xmlns:inkscape="http://www.inkscape.org/namespaces/inkscape"
   aria-hidden="true"
   focusable="false"
   data-prefix="fas"
   data-icon="network-wired"
   class="svg-inline--fa fa-network-wired fa-w-20"
   role="img"
   viewBox="0 0 512 512"
   version="1.1"
   id="svg4"
   sodipodi:docname="network.svg"
   width="512"
   height="512"
   inkscape:version="0.92.5 (2060ec1f9f, 2020-04-08)">
  <metadata
     id="metadata10">
    <rdf:RDF>
      <cc:Work
         rdf:about="">
        <dc:format>image/svg+xml</dc:format>
        <dc:type
           rdf:resource="http://purl.org/dc/dcmitype/StillImage" />
        <dc:title></dc:title>
      </cc:Work>
    </rdf:RDF>
  </metadata>
  <defs
     id="defs8" />
  <sodipodi:namedview
     pagecolor="#ffffff"
     bordercolor="#666666"
     borderopacity="1"
     objecttolerance="10"
     gridtolerance="10"
     guidetolerance="10"
     inkscape:pageopacity="0"
     inkscape:pageshadow="2"
     inkscape:window-width="3840"
     inkscape:window-height="2020"
     id="namedview6"
     showgrid="false"
     inkscape:pagecheckerboard="true"
     inkscape:zoom="1.3037281"
     inkscape:cx="145.8617"
     inkscape:cy="237.29385"
     inkscape:window-x="0"
     inkscape:window-y="0"
     inkscape:window-maximized="1"
     inkscape:current-layer="svg4" />
  <path
     d="m 432,260.4 v -8.8 c 0,-4.862 -3.938,-8.8 -8.8,-8.8 h -154 v -22 h 39.6 c 9.7185,0 17.6,-7.8815 17.6,-17.6 v -70.4 c 0,-9.7185 -7.8815,-17.6 -17.6,-17.6 H 203.2 c -9.7185,0 -17.6,7.8815 -17.6,17.6 v 70.4 c 0,9.7185 7.8815,17.6 17.6,17.6 h 39.6 v 22 h -154 c -4.862,0 -8.8,3.938 -8.8,8.8 v 8.8 c 0,4.862 3.938,8.8 8.8,8.8 H 146 v 22 h -30.8 c -9.7185,0 -17.6,7.8815 -17.6,17.6 v 70.4 c 0,9.7185 7.8815,17.6 17.6,17.6 h 88 c 9.7185,0 17.6,-7.8815 17.6,-17.6 v -70.4 c 0,-9.7185 -7.8815,-17.6 -17.6,-17.6 h -30.8 v -22 h 167.2 v 22 h -30.8 c -9.7185,0 -17.6,7.8815 -17.6,17.6 v 70.4 c 0,9.7185 7.8815,17.6 17.6,17.6 h 88 c 9.7185,0 17.6,-7.8815 17.6,-17.6 v -70.4 c 0,-9.7185 -7.8815,-17.6 -17.6,-17.6 H 366 v -22 h 57.2 c 4.862,0 8.8,-3.938 8.8,-8.8 z M 220.8,185.6 v -35.2 h 70.4 v 35.2 z m -35.2,176 h -52.8 v -35.2 h 52.8 z m 193.6,0 h -52.8 v -35.2 h 52.8 z"
     id="path2"
     inkscape:connector-curvature="0"
     style="fill:#ffffff;stroke-width:0.55000001" />
</svg>
