<?xml version="1.0" encoding="UTF-8" standalone="no"?>
<svg
   xmlns:dc="http://purl.org/dc/elements/1.1/"
   xmlns:cc="http://creativecommons.org/ns#"
   xmlns:rdf="http://www.w3.org/1999/02/22-rdf-syntax-ns#"
   xmlns:svg="http://www.w3.org/2000/svg"
   xmlns="http://www.w3.org/2000/svg"
   xmlns:sodipodi="http://sodipodi.sourceforge.net/DTD/sodipodi-0.dtd"
   xmlns:inkscape="http://www.inkscape.org/namespaces/inkscape"
   aria-hidden="true"
   focusable="false"
   data-prefix="fas"
   data-icon="arrow-left"
   class="svg-inline--fa fa-arrow-left fa-w-14"
   role="img"
   viewBox="0 0 512 512"
   version="1.1"
   id="svg4"
   sodipodi:docname="reset.svg"
   width="512"
   height="512"
   inkscape:version="0.92.5 (2060ec1f9f, 2020-04-08)">
  <metadata
     id="metadata10">
    <rdf:RDF>
      <cc:Work
         rdf:about="">
        <dc:format>image/svg+xml</dc:format>
        <dc:type
           rdf:resource="http://purl.org/dc/dcmitype/StillImage" />
        <dc:title></dc:title>
      </cc:Work>
    </rdf:RDF>
  </metadata>
  <defs
     id="defs8" />
  <sodipodi:namedview
     pagecolor="#ffffff"
     bordercolor="#666666"
     borderopacity="1"
     objecttolerance="10"
     gridtolerance="10"
     guidetolerance="10"
     inkscape:pageopacity="0"
     inkscape:pageshadow="2"
     inkscape:window-width="3712"
     inkscape:window-height="2106"
     id="namedview6"
     showgrid="false"
     inkscape:snap-smooth-nodes="false"
     inkscape:zoom="3.5686796"
     inkscape:cx="315.62934"
     inkscape:cy="371.87195"
     inkscape:window-x="128"
     inkscape:window-y="54"
     inkscape:window-maximized="1"
     inkscape:current-layer="svg4"
     inkscape:document-rotation="0"
     inkscape:pagecheckerboard="true" />
  <path
     id="path835-7-1"
     style="fill:#ffffff;stroke:none;stroke-width:0.52269208"
     d="m 105.49763,141.87037 c -6.951798,0 -12.544608,5.59283 -12.544608,12.54462 v 52.94913 97.2728 52.9481 c 0,6.95181 5.59281,12.54461 12.544608,12.54461 h 16.72614 c 6.95181,0 12.54463,-5.5928 12.54463,-12.54461 v -52.94811 -97.2728 -52.94912 c 0,-6.95179 -5.59282,-12.54462 -12.54463,-12.54462 z m 152.72503,-0.12818 c -2.95676,0 -5.9174,1.23006 -8.18164,3.68945 l -93.6543,101.72461 c -4.52848,4.86645 -4.52848,12.8195 0,17.73828 l 93.6543,101.67383 c 4.48031,4.91878 11.80158,4.91878 16.33007,0 l 10.69532,-11.61719 c 4.62482,-4.9711 4.52782,-13.08081 -0.19336,-17.94726 L 218.82227,276.9082 h 187.64648 c 6.95179,0 12.54492,-5.59311 12.54492,-12.54492 v -16.72656 c 0,-6.9518 -5.59313,-12.57144 -12.54492,-12.56836 H 218.82227 l 58.05078,-60.07227 c 4.67301,-4.86645 4.77001,-12.97615 0.19336,-17.94726 l -10.69532,-11.61719 c -2.24015,-2.45939 -5.19166,-3.68945 -8.14843,-3.68945 z" />
</svg>
