<?xml version="1.0" encoding="UTF-8" standalone="no"?>
<svg
   xmlns:dc="http://purl.org/dc/elements/1.1/"
   xmlns:cc="http://creativecommons.org/ns#"
   xmlns:rdf="http://www.w3.org/1999/02/22-rdf-syntax-ns#"
   xmlns:svg="http://www.w3.org/2000/svg"
   xmlns="http://www.w3.org/2000/svg"
   xmlns:sodipodi="http://sodipodi.sourceforge.net/DTD/sodipodi-0.dtd"
   xmlns:inkscape="http://www.inkscape.org/namespaces/inkscape"
   aria-hidden="true"
   focusable="false"
   data-prefix="fas"
   data-icon="trash"
   class="svg-inline--fa fa-trash fa-w-14"
   role="img"
   viewBox="0 0 512 512"
   version="1.1"
   id="svg4"
   sodipodi:docname="delete.svg"
   width="512"
   height="512"
   inkscape:export-filename="/home/david/PhD/pyHSI/icons/delete.png"
   inkscape:export-xdpi="12.19"
   inkscape:export-ydpi="12.19"
   inkscape:version="0.92.5 (2060ec1f9f, 2020-04-08)">
  <metadata
     id="metadata10">
    <rdf:RDF>
      <cc:Work
         rdf:about="">
        <dc:format>image/svg+xml</dc:format>
        <dc:type
           rdf:resource="http://purl.org/dc/dcmitype/StillImage" />
        <dc:title></dc:title>
      </cc:Work>
    </rdf:RDF>
  </metadata>
  <defs
     id="defs8" />
  <sodipodi:namedview
     pagecolor="#ffffff"
     bordercolor="#666666"
     borderopacity="1"
     objecttolerance="10"
     gridtolerance="10"
     guidetolerance="10"
     inkscape:pageopacity="0"
     inkscape:pageshadow="2"
     inkscape:window-width="3840"
     inkscape:window-height="2015"
     id="namedview6"
     showgrid="false"
     inkscape:zoom="0.4609375"
     inkscape:cx="224"
     inkscape:cy="256"
     inkscape:window-x="0"
     inkscape:window-y="0"
     inkscape:window-maximized="1"
     inkscape:current-layer="svg4" />
  <path
     d="m 391.2,110.39997 h -78 l -6.11,-12.155001 a 15.6,15.6 0 0 0 -13.975,-8.645 H 218.82 a 15.418,15.418 0 0 0 -13.91,8.645 l -6.11,12.155001 h -78 a 10.4,10.4 0 0 0 -10.4,10.4 v 20.8 a 10.4,10.4 0 0 0 10.4,10.4 h 270.4 a 10.4,10.4 0 0 0 10.4,-10.4 v -20.8 a 10.4,10.4 0 0 0 -10.4,-10.4 z m -246.22,282.75 a 31.2,31.2 0 0 0 31.135,29.25 h 159.77 a 31.2,31.2 0 0 0 31.135,-29.25 l 13.78,-220.35 H 131.2 Z"
     id="path2"
     inkscape:connector-curvature="0"
     style="fill:#ffffff;stroke-width:0.64999998" />
</svg>
