<?xml version="1.0" encoding="UTF-8" standalone="no"?>
<svg
   xmlns:dc="http://purl.org/dc/elements/1.1/"
   xmlns:cc="http://creativecommons.org/ns#"
   xmlns:rdf="http://www.w3.org/1999/02/22-rdf-syntax-ns#"
   xmlns:svg="http://www.w3.org/2000/svg"
   xmlns="http://www.w3.org/2000/svg"
   xmlns:sodipodi="http://sodipodi.sourceforge.net/DTD/sodipodi-0.dtd"
   xmlns:inkscape="http://www.inkscape.org/namespaces/inkscape"
   aria-hidden="true"
   focusable="false"
   data-prefix="fas"
   data-icon="expand"
   class="svg-inline--fa fa-expand fa-w-14"
   role="img"
   viewBox="0 0 512 512"
   version="1.1"
   id="svg4"
   sodipodi:docname="expand.svg"
   width="512"
   height="512"
   inkscape:version="0.92.5 (2060ec1f9f, 2020-04-08)">
  <metadata
     id="metadata10">
    <rdf:RDF>
      <cc:Work
         rdf:about="">
        <dc:format>image/svg+xml</dc:format>
        <dc:type
           rdf:resource="http://purl.org/dc/dcmitype/StillImage" />
        <dc:title></dc:title>
      </cc:Work>
    </rdf:RDF>
  </metadata>
  <defs
     id="defs8" />
  <sodipodi:namedview
     pagecolor="#ffffff"
     bordercolor="#666666"
     borderopacity="1"
     objecttolerance="10"
     gridtolerance="10"
     guidetolerance="10"
     inkscape:pageopacity="0"
     inkscape:pageshadow="2"
     inkscape:window-width="3840"
     inkscape:window-height="2015"
     id="namedview6"
     showgrid="false"
     inkscape:pagecheckerboard="true"
     inkscape:zoom="1.3037281"
     inkscape:cx="394.05121"
     inkscape:cy="65.092494"
     inkscape:window-x="0"
     inkscape:window-y="0"
     inkscape:window-maximized="1"
     inkscape:current-layer="svg4" />
  <path
     d="m 89.460053,199.49538 v -92.19176 c 0,-9.888312 7.955257,-17.843568 17.843567,-17.843568 h 92.19176 c 4.90698,0 8.92178,4.014802 8.92178,8.921785 v 29.739273 c 0,4.90699 -4.0148,8.92179 -8.92178,8.92179 H 137.0429 v 62.45248 c 0,4.90698 -4.0148,8.92178 -8.92178,8.92178 H 98.381836 c -4.906981,0 -8.921783,-4.0148 -8.921783,-8.92178 z M 303.58285,98.381837 v 29.739273 c 0,4.90699 4.0148,8.92179 8.92178,8.92179 h 62.45248 v 62.45248 c 0,4.90698 4.01481,8.92178 8.92179,8.92178 h 29.73927 c 4.90698,0 8.92178,-4.0148 8.92178,-8.92178 v -92.19176 c 0,-9.888312 -7.95525,-17.843568 -17.84356,-17.843568 h -92.19176 c -4.90698,0 -8.92178,4.014802 -8.92178,8.921785 z M 413.61817,303.58285 H 383.8789 c -4.90698,0 -8.92179,4.0148 -8.92179,8.92178 v 62.45248 h -62.45248 c -4.90698,0 -8.92178,4.01481 -8.92178,8.92179 v 29.73927 c 0,4.90698 4.0148,8.92178 8.92178,8.92178 h 92.19176 c 9.88831,0 17.84356,-7.95525 17.84356,-17.84356 v -92.19176 c 0,-4.90698 -4.0148,-8.92178 -8.92178,-8.92178 z M 208.41716,413.61817 V 383.8789 c 0,-4.90698 -4.0148,-8.92179 -8.92178,-8.92179 H 137.0429 v -62.45248 c 0,-4.90698 -4.0148,-8.92178 -8.92178,-8.92178 H 98.381836 c -4.906981,0 -8.921783,4.0148 -8.921783,8.92178 v 92.19176 c 0,9.88831 7.955256,17.84356 17.843567,17.84356 h 92.19176 c 4.90698,0 8.92178,-4.0148 8.92178,-8.92178 z"
     id="path2"
     inkscape:connector-curvature="0"
     style="fill:#ffffff;stroke-width:0.74348193" />
</svg>
