<?xml version="1.0" encoding="UTF-8" standalone="no"?>
<svg
   xmlns:dc="http://purl.org/dc/elements/1.1/"
   xmlns:cc="http://creativecommons.org/ns#"
   xmlns:rdf="http://www.w3.org/1999/02/22-rdf-syntax-ns#"
   xmlns:svg="http://www.w3.org/2000/svg"
   xmlns="http://www.w3.org/2000/svg"
   xmlns:sodipodi="http://sodipodi.sourceforge.net/DTD/sodipodi-0.dtd"
   xmlns:inkscape="http://www.inkscape.org/namespaces/inkscape"
   aria-hidden="true"
   focusable="false"
   data-prefix="fas"
   data-icon="arrow-left"
   class="svg-inline--fa fa-arrow-left fa-w-14"
   role="img"
   viewBox="0 0 512 512"
   version="1.1"
   id="svg4"
   sodipodi:docname="move.svg"
   width="512"
   height="512"
   inkscape:version="0.92.5 (2060ec1f9f, 2020-04-08)">
  <metadata
     id="metadata10">
    <rdf:RDF>
      <cc:Work
         rdf:about="">
        <dc:format>image/svg+xml</dc:format>
        <dc:type
           rdf:resource="http://purl.org/dc/dcmitype/StillImage" />
        <dc:title></dc:title>
      </cc:Work>
    </rdf:RDF>
  </metadata>
  <defs
     id="defs8" />
  <sodipodi:namedview
     pagecolor="#ffffff"
     bordercolor="#666666"
     borderopacity="1"
     objecttolerance="10"
     gridtolerance="10"
     guidetolerance="10"
     inkscape:pageopacity="0"
     inkscape:pageshadow="2"
     inkscape:window-width="3840"
     inkscape:window-height="2015"
     id="namedview6"
     showgrid="false"
     inkscape:zoom="1.3037281"
     inkscape:cx="436.62497"
     inkscape:cy="157.22975"
     inkscape:window-x="0"
     inkscape:window-y="0"
     inkscape:window-maximized="1"
     inkscape:current-layer="svg4" />
  <path
     style="fill:#ffffff;stroke-width:0.50208479"
     d="m 194.91801,141.74325 c -2.95676,0 -5.91898,1.22909 -8.18322,3.68848 L 93.081763,247.15647 c -4.528481,4.86645 -4.528481,12.82042 0,17.7392 l 93.653027,101.67261 c 4.48031,4.91878 11.80314,4.91878 16.33163,0 l 10.69455,-11.6173 c 4.62482,-4.9711 4.52829,-13.08125 -0.19289,-17.9477 l -58.05127,-60.0723 h 62.51031 75.94577 62.51031 l -58.05127,60.0723 c -4.67301,4.86645 -4.76954,12.9766 -0.19289,17.9477 l 10.69549,11.6173 c 4.4803,4.91878 11.8022,4.91878 16.33068,0 l 93.65303,-101.72474 c 4.52848,-4.86645 4.52848,-12.82042 0,-17.7392 L 325.26521,145.43173 c -4.4803,-4.91879 -11.8022,-4.91879 -16.33068,0 l -10.69549,11.6173 c -4.62483,4.97111 -4.52829,13.08125 0.19289,17.9477 l 58.05127,60.0723 h -62.51031 -75.94577 -62.51031 l 58.05127,-60.0723 c 4.67301,-4.86645 4.76954,-12.97659 0.19289,-17.9477 l -10.69455,-11.6173 c -2.24015,-2.45939 -5.19164,-3.68848 -8.14841,-3.68848 z"
     id="path2"
     inkscape:connector-curvature="0" />
</svg>
