<?xml version="1.0" encoding="UTF-8" standalone="no"?>
<svg
   xmlns:dc="http://purl.org/dc/elements/1.1/"
   xmlns:cc="http://creativecommons.org/ns#"
   xmlns:rdf="http://www.w3.org/1999/02/22-rdf-syntax-ns#"
   xmlns:svg="http://www.w3.org/2000/svg"
   xmlns="http://www.w3.org/2000/svg"
   xmlns:sodipodi="http://sodipodi.sourceforge.net/DTD/sodipodi-0.dtd"
   xmlns:inkscape="http://www.inkscape.org/namespaces/inkscape"
   aria-hidden="true"
   focusable="false"
   data-prefix="fas"
   data-icon="sync"
   class="svg-inline--fa fa-sync fa-w-16"
   role="img"
   viewBox="0 0 512 512"
   version="1.1"
   id="svg4"
   sodipodi:docname="reload.svg"
   inkscape:export-filename="/home/david/PhD/pyHSI/icons/reload.png"
   inkscape:export-xdpi="12.19"
   inkscape:export-ydpi="12.19"
   inkscape:version="0.92.5 (2060ec1f9f, 2020-04-08)">
  <metadata
     id="metadata10">
    <rdf:RDF>
      <cc:Work
         rdf:about="">
        <dc:format>image/svg+xml</dc:format>
        <dc:type
           rdf:resource="http://purl.org/dc/dcmitype/StillImage" />
      </cc:Work>
    </rdf:RDF>
  </metadata>
  <defs
     id="defs8" />
  <sodipodi:namedview
     pagecolor="#ffffff"
     bordercolor="#666666"
     borderopacity="1"
     objecttolerance="10"
     gridtolerance="10"
     guidetolerance="10"
     inkscape:pageopacity="0"
     inkscape:pageshadow="2"
     inkscape:window-width="3840"
     inkscape:window-height="2015"
     id="namedview6"
     showgrid="false"
     inkscape:zoom="0.4609375"
     inkscape:cx="256"
     inkscape:cy="256"
     inkscape:window-x="0"
     inkscape:window-y="0"
     inkscape:window-maximized="1"
     inkscape:current-layer="svg4" />
  <path
     d="m 376.0225,97.770502 2.6,53.800498 A 160.654,160.654 0 0 0 255.8895,94.800002 c -78.715,0 -144.248,56.497998 -158.301,131.182998 a 7.8,7.8 0 0 0 7.67,9.217 h 31.8825 a 7.8,7.8 0 0 0 7.5855,-6.019 114.3415,114.3415 0 0 1 206.05,-37.011 l -65.949,-3.159 a 7.8,7.8 0 0 0 -8.1705,7.8 v 30.8165 a 7.8,7.8 0 0 0 7.8,7.8 H 414.6 a 7.8,7.8 0 0 0 7.8,-7.8 V 97.400002 a 7.8,7.8 0 0 0 -7.8,-7.8 h -30.7905 a 7.8,7.8 0 0 0 -7.787,8.1705 z M 255.8895,370.4 a 114.1465,114.1465 0 0 1 -94.9,-50.57 l 66.17,3.1655 a 7.8,7.8 0 0 0 8.1705,-7.8 v -30.81 a 7.8,7.8 0 0 0 -7.8,-7.8 H 97.4 a 7.8,7.8 0 0 0 -7.8,7.8 V 414.6 a 7.8,7.8 0 0 0 7.8,7.8 h 30.7775 a 7.8,7.8 0 0 0 7.8,-8.19 L 133.28,360.5395 A 160.6605,160.6605 0 0 0 255.8895,417.2 c 78.7215,0 144.2545,-56.498 158.3075,-131.183 a 7.8,7.8 0 0 0 -7.67,-9.217 h -31.8825 a 7.8,7.8 0 0 0 -7.5855,6.019 114.309,114.309 0 0 1 -111.1695,87.581 z"
     id="path2"
     inkscape:connector-curvature="0"
     style="fill:#ffffff;stroke-width:0.64999998" />
</svg>
